<svg width="512" height="512" viewBox="0 0 512 512" fill="none" xmlns="http://www.w3.org/2000/svg">
<path fill-rule="evenodd" clip-rule="evenodd" d="M256.45 154.265C300.633 154.265 336.45 118.448 336.45 74.2654C336.45 46.8998 322.71 22.7435 301.752 8.31897C362.52 40.7028 461.511 235.073 456.45 306.266C456.45 416.723 366.907 506.266 256.45 506.266C145.993 506.266 56.4503 416.723 56.4503 306.266C48.2054 227.939 155.146 29.9425 216.395 5C192.513 18.8402 176.45 44.6769 176.45 74.2654C176.45 118.448 212.268 154.265 256.45 154.265ZM349.45 409.266C390.872 409.266 424.45 375.687 424.45 334.266C424.45 315.299 417.41 297.978 405.801 284.771L299.955 390.616C313.162 402.226 330.484 409.266 349.45 409.266ZM88.4503 334.266C88.4503 315.501 95.3416 298.346 106.732 285.193L212.523 390.984C199.37 402.374 182.215 409.266 163.45 409.266C122.029 409.266 88.4503 375.687 88.4503 334.266Z" fill="white"/>
</svg>
