<svg width="512" height="512" viewBox="0 0 512 512" fill="none" xmlns="http://www.w3.org/2000/svg">
<path d="M126 142.016C126 142.016 127.98 96.6411 172.117 60.2586C198.325 38.6574 229.799 32.4011 258 32.0161C283.754 31.6999 306.771 36.0586 320.535 42.7686C344.061 54.2911 390 82.3411 390 142.016C390 204.812 349.877 233.275 304.269 264.639C258.66 296.002 247 326.761 247 362.016" stroke="white" stroke-width="64" stroke-miterlimit="10" stroke-linecap="round"/>
<path d="M290.5 466.502C290.5 490.527 271.024 510.002 247 510.002C222.976 510.002 203.5 490.527 203.5 466.502C203.5 442.478 222.976 423.002 247 423.002C271.024 423.002 290.5 442.478 290.5 466.502Z" fill="white" stroke="white"/>
</svg>
