<svg width="320" height="414" viewBox="0 0 320 414" fill="none" xmlns="http://www.w3.org/2000/svg">
<rect width="320" height="413.333" rx="12" fill="#70559B"/>
<rect x="4" y="199" width="312" height="210.068" rx="8" fill="white"/>
<rect width="1" height="240" transform="translate(280.004 331.832) rotate(90.3971)" fill="#E0E0E0"/>
<g opacity="0.1">
<path d="M242.286 99.5C242.286 111.532 232.532 121.286 220.5 121.286C208.468 121.286 198.714 111.532 198.714 99.5C198.714 87.4681 208.468 77.7143 220.5 77.7143C232.532 77.7143 242.286 87.4681 242.286 99.5Z" fill="white"/>
<path fill-rule="evenodd" clip-rule="evenodd" d="M220.5 191C266.596 191 304.731 156.914 311.073 112.571H257.483C252.1 127.802 237.574 138.714 220.5 138.714C203.426 138.714 188.9 127.802 183.517 112.571H129.927C136.269 156.914 174.404 191 220.5 191ZM183.517 86.4286H129.927C136.269 42.0864 174.404 8 220.5 8C266.596 8 304.731 42.0864 311.073 86.4286H257.483C252.1 71.1978 237.574 60.2857 220.5 60.2857C203.426 60.2857 188.9 71.1978 183.517 86.4286ZM242.286 99.5C242.286 111.532 232.532 121.286 220.5 121.286C208.468 121.286 198.714 111.532 198.714 99.5C198.714 87.4681 208.468 77.7143 220.5 77.7143C232.532 77.7143 242.286 87.4681 242.286 99.5Z" fill="white"/>
</g>
</svg>
